<svg width="13" height="14" viewBox="0 0 13 14" fill="none" xmlns="http://www.w3.org/2000/svg">
<path d="M13 7.58559C12.8861 8.81757 12.4238 9.99165 11.667 10.9704C10.9102 11.9492 9.89037 12.6923 8.72672 13.1126C7.56307 13.5329 6.30378 13.6131 5.09621 13.3439C3.88863 13.0746 2.78271 12.467 1.90785 11.5921C1.033 10.7173 0.425392 9.61137 0.156131 8.40379C-0.11313 7.19622 -0.0329082 5.93693 0.38741 4.77328C0.807727 3.60963 1.55076 2.58975 2.52955 1.83298C3.50835 1.07621 4.68243 0.613851 5.91441 0.5C5.19313 1.47582 4.84604 2.67811 4.93628 3.88821C5.02652 5.09831 5.54809 6.23582 6.40614 7.09387C7.26418 7.95191 8.4017 8.47348 9.61179 8.56372C10.8219 8.65396 12.0242 8.30687 13 7.58559Z" fill="white"/>
</svg>
