<svg width="44" height="44" viewBox="0 0 44 44" fill="none" xmlns="http://www.w3.org/2000/svg">
<path fill-rule="evenodd" clip-rule="evenodd" d="M12.2773 10.9023C14.8559 8.32366 18.3533 6.875 22 6.875C23.8057 6.875 25.5937 7.23065 27.2619 7.92166C28.9301 8.61266 30.4459 9.62548 31.7227 10.9023C32.9995 12.1791 34.0123 13.6949 34.7033 15.3631C35.3943 17.0313 35.75 18.8193 35.75 20.625C35.8419 22.6212 35.4585 24.6107 34.6314 26.4298C33.8043 28.249 32.5571 29.8457 30.9925 31.0888C29.6037 32.3813 28.875 33.11 28.875 34.375H26.125C26.125 31.8669 27.5928 30.4961 29.0372 29.1472C29.0656 29.1206 29.0941 29.0941 29.1225 29.0675C30.4101 28.0849 31.437 26.8013 32.113 25.3293C32.7891 23.8574 33.0936 22.2421 33 20.625C33 17.7076 31.8411 14.9097 29.7782 12.8468C27.7153 10.7839 24.9174 9.625 22 9.625C19.0826 9.625 16.2847 10.7839 14.2218 12.8468C12.1589 14.9097 11 17.7076 11 20.625C10.9048 22.2409 11.2072 23.8554 11.8808 25.3273C12.5544 26.7991 13.5786 28.0834 14.8637 29.0675C16.3487 30.4287 17.875 31.845 17.875 34.375H15.125C15.125 33.11 14.3825 32.3813 13.0075 31.1025C11.4417 29.8573 10.194 28.2582 9.36689 26.4367C8.5398 24.6152 8.157 22.6233 8.24999 20.625C8.24999 16.9783 9.69864 13.4809 12.2773 10.9023ZM28.875 37.125H15.125V39.875H28.875V37.125ZM26.125 41.25H17.875V44H26.125V41.25Z" fill="white"/>
</svg>
