<svg width="38" height="34" viewBox="0 0 38 34" fill="none" xmlns="http://www.w3.org/2000/svg">
<path d="M15.7384 25.3684H7.71758C2.34033 25.3684 1 23.9489 1 18.2539V8.11449C1 2.41952 2.34033 1 7.71758 1H26.4929C31.8702 1 33.2105 2.41952 33.2105 8.11449" stroke="#F9F9F9" stroke-width="2" stroke-linecap="round" stroke-linejoin="round"/>
<path d="M16.721 33.0055V25.3672" stroke="#F9F9F9" stroke-width="2" stroke-linecap="round" stroke-linejoin="round"/>
<path opacity="0.4" d="M1 18.6094H14.5192" stroke="#F9F9F9" stroke-width="2" stroke-linecap="round" stroke-linejoin="round"/>
<path d="M11.2121 33.0073H16.7212" stroke="#F9F9F9" stroke-width="2" stroke-linecap="round" stroke-linejoin="round"/>
<path d="M37 18.3546V28.004C37 32.009 36.0029 33.0061 31.9978 33.0061H25.9987C21.9936 33.0061 20.9966 32.009 20.9966 28.004V18.3546C20.9966 14.3496 21.9936 13.3525 25.9987 13.3525H31.9978C36.0029 13.3525 37 14.3496 37 18.3546Z" stroke="#F9F9F9" stroke-width="2" stroke-linecap="round" stroke-linejoin="round"/>
<path opacity="0.4" d="M28.9637 27.5652H28.9788" stroke="#F9F9F9" stroke-width="2" stroke-linecap="round" stroke-linejoin="round"/>
</svg>
