<svg width="32" height="32" viewBox="0 0 32 32" fill="none" xmlns="http://www.w3.org/2000/svg">
<path fill-rule="evenodd" clip-rule="evenodd" d="M24 8H26V4C25.9994 3.46974 25.7886 2.96135 25.4136 2.5864C25.0386 2.21145 24.5303 2.00056 24 2H20V4H24V8ZM4 12H2V16H4V12ZM8 26H4C3.46974 25.9994 2.96135 25.7886 2.5864 25.4136C2.21145 25.0386 2.00056 24.5303 2 24V20H4V24H8V26ZM16 2H12V4H16V2ZM2 8H4V4H8V2H4C3.46974 2.00056 2.96135 2.21145 2.5864 2.5864C2.21145 2.96135 2.00056 3.46974 2 4V8Z" fill="white"/>
<path d="M27 32.0001C26.8687 32.0003 26.7386 31.9745 26.6173 31.9242C26.4959 31.8739 26.3857 31.8002 26.293 31.7071L20.1553 25.5694L16.832 30.5548C16.7267 30.7128 16.5787 30.8375 16.4052 30.9144C16.2316 30.9913 16.0398 31.0173 15.8521 30.9892C15.6644 30.9611 15.4885 30.8802 15.3451 30.7559C15.2016 30.6316 15.0965 30.4691 15.042 30.2872L9.04202 10.2872C8.99016 10.1143 8.98609 9.93055 9.03023 9.75548C9.07438 9.58041 9.1651 9.42056 9.29277 9.29289C9.42044 9.16523 9.58029 9.0745 9.75536 9.03036C9.93042 8.98621 10.1142 8.99028 10.2871 9.04214L30.2871 15.0421C30.4689 15.0966 30.6315 15.2017 30.7558 15.3452C30.8801 15.4886 30.961 15.6645 30.9891 15.8522C31.0171 16.0399 30.9912 16.2318 30.9143 16.4053C30.8374 16.5788 30.7127 16.7269 30.5547 16.8321L25.5693 20.1554L31.707 26.2931C31.7999 26.386 31.8736 26.4962 31.9239 26.6175C31.9742 26.7388 32.0001 26.8688 32.0001 27.0001C32.0001 27.1315 31.9742 27.2615 31.9239 27.3828C31.8736 27.5041 31.7999 27.6143 31.707 27.7071L27.707 31.7071C27.6143 31.8002 27.5041 31.8739 27.3828 31.9242C27.2614 31.9745 27.1314 32.0003 27 32.0001ZM27 29.586L29.5859 27.0001L22.431 19.8451L27.6768 16.3473L11.4917 11.4918L16.3472 27.6769L19.845 22.4311L27 29.586Z" fill="white"/>
</svg>
