<svg width="36" height="36" viewBox="0 0 36 36" fill="none" xmlns="http://www.w3.org/2000/svg">
<path opacity="0.4" d="M4.12485 27.9747C3.50985 27.9747 2.99985 27.4647 2.99985 26.8497V18.2997C2.92485 14.2347 4.43985 10.3947 7.25985 7.51471C10.0798 4.64971 13.8598 3.07471 17.9248 3.07471C26.2348 3.07471 32.9999 9.83971 32.9999 18.1497V26.6997C32.9999 27.3147 32.4899 27.8247 31.8749 27.8247C31.2598 27.8247 30.7499 27.3147 30.7499 26.6997V18.1497C30.7499 11.0847 25.0048 5.32471 17.9248 5.32471C14.4598 5.32471 11.2498 6.65971 8.86485 9.08971C6.46485 11.5347 5.18985 14.7897 5.24985 18.2697V26.8347C5.24985 27.4647 4.75485 27.9747 4.12485 27.9747Z" fill="white"/>
<path d="M8.91012 18.6748H8.71512C5.56512 18.6748 3.00012 21.2398 3.00012 24.3898V27.2098C3.00012 30.3598 5.56512 32.9248 8.71512 32.9248H8.91012C12.0601 32.9248 14.6251 30.3598 14.6251 27.2098V24.3898C14.6251 21.2398 12.0601 18.6748 8.91012 18.6748Z" fill="white"/>
<path d="M27.285 18.6748H27.09C23.94 18.6748 21.375 21.2398 21.375 24.3898V27.2098C21.375 30.3598 23.94 32.9248 27.09 32.9248H27.285C30.435 32.9248 33 30.3598 33 27.2098V24.3898C33 21.2398 30.435 18.6748 27.285 18.6748Z" fill="white"/>
</svg>
