<svg width="36" height="36" viewBox="0 0 36 36" fill="none" xmlns="http://www.w3.org/2000/svg">
<path d="M18 20.25C17.8138 20.25 17.6304 20.2036 17.4666 20.115L2.84163 12.24C2.66284 12.1437 2.51346 12.0008 2.40934 11.8264C2.30522 11.652 2.25024 11.4527 2.25024 11.2497C2.25024 11.0466 2.30522 10.8473 2.40934 10.6729C2.51346 10.4985 2.66284 10.3556 2.84163 10.2593L17.4666 2.38426C17.6305 2.29582 17.8138 2.24951 18 2.24951C18.1862 2.24951 18.3695 2.29582 18.5334 2.38426L33.1584 10.2593C33.3371 10.3556 33.4865 10.4985 33.5906 10.6729C33.6948 10.8473 33.7497 11.0466 33.7497 11.2497C33.7497 11.4527 33.6948 11.652 33.5906 11.8264C33.4865 12.0008 33.3371 12.1437 33.1584 12.24L18.5334 20.115C18.3695 20.2036 18.1862 20.25 18 20.25ZM5.74807 11.25L18 17.8474L30.2519 11.25L18 4.65282L5.74807 11.25Z" fill="white"/>
<path d="M18 27.0003C17.8137 27.0002 17.6304 26.9538 17.4666 26.8653L2.84161 18.9903L3.90834 17.0103L18 24.5976L32.0916 17.0103L33.1583 18.991L18.5333 26.866C18.3695 26.9544 18.1861 27.0005 18 27.0003Z" fill="white"/>
<path d="M18 33.7503C17.8137 33.7502 17.6304 33.7038 17.4666 33.6153L2.84161 25.7403L3.90834 23.7603L18 31.3476L32.0916 23.7603L33.1583 25.741L18.5333 33.616C18.3695 33.7044 18.1861 33.7505 18 33.7503Z" fill="white"/>
</svg>
