<svg width="32" height="32" viewBox="0 0 32 32" fill="none" xmlns="http://www.w3.org/2000/svg">
<path d="M31 14.35V4.15C31 1.9 30.04 1 27.655 1H21.595C19.21 1 18.25 1.9 18.25 4.15V14.35C18.25 16.6 19.21 17.5 21.595 17.5H27.655C30.04 17.5 31 16.6 31 14.35Z" stroke="white" stroke-width="2" stroke-linecap="round" stroke-linejoin="round"/>
<path opacity="0.4" d="M31 27.8495V25.1495C31 22.8995 30.04 21.9995 27.655 21.9995H21.595C19.21 21.9995 18.25 22.8995 18.25 25.1495V27.8495C18.25 30.0995 19.21 30.9995 21.595 30.9995H27.655C30.04 30.9995 31 30.0995 31 27.8495Z" stroke="white" stroke-width="2" stroke-linecap="round" stroke-linejoin="round"/>
<path d="M13.75 17.6495V27.8495C13.75 30.0995 12.79 30.9995 10.405 30.9995H4.345C1.96 30.9995 1 30.0995 1 27.8495V17.6495C1 15.3995 1.96 14.4995 4.345 14.4995H10.405C12.79 14.4995 13.75 15.3995 13.75 17.6495Z" stroke="white" stroke-width="2" stroke-linecap="round" stroke-linejoin="round"/>
<path opacity="0.4" d="M13.75 4.15V6.85C13.75 9.1 12.79 10 10.405 10H4.345C1.96 10 1 9.1 1 6.85V4.15C1 1.9 1.96 1 4.345 1H10.405C12.79 1 13.75 1.9 13.75 4.15Z" stroke="white" stroke-width="2" stroke-linecap="round" stroke-linejoin="round"/>
</svg>
