<svg width="36" height="36" viewBox="0 0 36 36" fill="none" xmlns="http://www.w3.org/2000/svg">
<path fill-rule="evenodd" clip-rule="evenodd" d="M7.6275 11.2504H13.5V13.5004H4.5V4.50041H6.75V8.64041C8.67255 6.32593 11.2622 4.66074 14.1658 3.87192C17.0693 3.08309 20.1456 3.20901 22.9749 4.23251C25.8043 5.25602 28.2492 7.12728 29.9762 9.59116C31.7031 12.055 32.6281 14.9916 32.625 18.0004H30.375C30.3752 15.3326 29.5132 12.7361 27.9175 10.5981C26.3219 8.46 24.078 6.89485 21.5204 6.13592C18.9628 5.37698 16.2284 5.4649 13.7248 6.38656C11.2212 7.30822 9.08252 9.01427 7.6275 11.2504ZM28.3725 24.7502H22.5V22.5002H31.5V31.5002H29.25V27.3602C27.3275 29.6747 24.7378 31.3399 21.8343 32.1287C18.9307 32.9175 15.8545 32.7916 13.0251 31.7681C10.1957 30.7446 7.75081 28.8733 6.02385 26.4094C4.2969 23.9456 3.37191 21.009 3.37501 18.0002H5.62501C5.62484 20.668 6.48682 23.2645 8.08248 25.4025C9.67813 27.5406 11.922 29.1057 14.4796 29.8647C17.0372 30.6236 19.7716 30.5357 22.2752 29.614C24.7788 28.6924 26.9175 26.9863 28.3725 24.7502Z" fill="white"/>
</svg>
